<?xml version="1.0" standalone="no"?>
<!DOCTYPE svg PUBLIC "-//W3C//DTD SVG 20010904//EN"
 "http://www.w3.org/TR/2001/REC-SVG-20010904/DTD/svg10.dtd">
<svg version="1.0" xmlns="http://www.w3.org/2000/svg"
 width="128.000000pt" height="128.000000pt" viewBox="0 0 128.000000 128.000000"
 preserveAspectRatio="xMidYMid meet">
<metadata>
Created by potrace 1.15, written by Peter Selinger 2001-2017
</metadata>
<g transform="translate(0.000000,128.000000) scale(0.100000,-0.100000)"
fill="#000000" stroke="none">
<path d="M482 1265 c-30 -7 -92 -32 -140 -55 -123 -61 -214 -154 -275 -281
-54 -111 -67 -169 -67 -289 0 -120 13 -178 67 -289 63 -131 153 -221 284 -284
111 -54 169 -67 289 -67 120 0 178 13 289 67 75 36 108 59 166 118 59 58 82
91 118 166 54 111 67 169 67 289 0 120 -13 178 -67 289 -63 131 -153 221 -284
284 -52 25 -118 50 -147 56 -70 15 -234 13 -300 -4z m299 -121 c91 -27 151
-64 225 -138 110 -110 154 -215 154 -366 0 -151 -44 -256 -154 -366 -110 -110
-215 -154 -366 -154 -151 0 -256 44 -366 154 -110 110 -154 215 -154 366 0
151 44 256 154 366 74 74 124 105 216 135 72 23 217 25 291 3z"/>
<path d="M390 890 c-35 -35 -25 -58 72 -156 l92 -94 -92 -94 c-97 -98 -107
-121 -72 -156 35 -35 58 -25 156 72 l94 92 94 -92 c98 -97 121 -107 156 -72
35 35 25 58 -72 156 l-92 94 92 94 c97 98 107 121 72 156 -35 35 -58 25 -156
-72 l-94 -92 -94 92 c-98 97 -121 107 -156 72z"/>
</g>
</svg>
