<?xml version="1.0" standalone="no"?>
<!DOCTYPE svg PUBLIC "-//W3C//DTD SVG 20010904//EN"
 "http://www.w3.org/TR/2001/REC-SVG-20010904/DTD/svg10.dtd">
<svg version="1.0" xmlns="http://www.w3.org/2000/svg"
 width="1138.000000pt" height="1144.000000pt" viewBox="0 0 1138.000000 1144.000000"
 preserveAspectRatio="xMidYMid meet">
<metadata>
Created by potrace 1.15, written by Peter Selinger 2001-2017
</metadata>
<g transform="translate(0.000000,1144.000000) scale(0.100000,-0.100000)"
fill="#000000" stroke="none">
<path d="M5330 10639 c-707 -61 -1338 -243 -1923 -555 -270 -145 -443 -255
-696 -447 -181 -136 -254 -200 -455 -396 -419 -412 -742 -859 -990 -1371 -409
-847 -566 -1777 -460 -2720 63 -566 256 -1196 515 -1686 300 -568 682 -1052
1154 -1463 666 -580 1495 -977 2355 -1130 1241 -220 2502 35 3555 718 556 360
1050 850 1419 1406 299 451 500 882 641 1380 127 451 185 871 185 1350 0 1002
-287 1931 -854 2770 -288 426 -680 839 -1091 1150 -537 405 -1112 686 -1731
845 -447 115 -811 161 -1269 159 -143 -1 -303 -5 -355 -10z m685 -489 c572
-42 1090 -180 1610 -430 346 -166 695 -394 970 -634 316 -276 596 -595 820
-936 592 -901 832 -1978 680 -3055 -104 -738 -391 -1428 -850 -2040 -140 -187
-233 -294 -400 -461 -647 -649 -1444 -1068 -2355 -1238 -275 -51 -397 -61
-790 -61 -382 0 -484 8 -760 56 -285 50 -713 176 -964 284 -512 219 -967 522
-1360 905 -380 371 -649 739 -885 1211 -387 774 -534 1614 -435 2489 105 930
509 1803 1161 2505 378 407 803 721 1318 971 461 224 883 349 1400 414 230 29
595 38 840 20z"/>
<path d="M5271 8962 c-19 -9 -43 -28 -53 -42 -24 -33 -670 -2069 -663 -2090
12 -37 46 -40 421 -40 233 0 372 -4 385 -10 12 -7 19 -21 19 -39 0 -15 -110
-374 -245 -797 -135 -423 -250 -789 -256 -814 -12 -51 -5 -90 16 -90 8 0 39
24 69 53 30 28 466 567 968 1197 750 941 913 1150 913 1175 l0 30 -472 3 -473
2 -15 23 c-11 17 -12 31 -6 53 5 16 129 320 275 676 147 358 266 661 266 678
0 24 -6 33 -26 40 -15 6 -236 10 -557 10 -487 0 -535 -2 -566 -18z"/>
<path d="M2922 4041 c-39 -10 -91 -60 -118 -113 -22 -44 -26 -61 -22 -123 5
-110 59 -180 147 -192 54 -7 84 2 126 39 47 40 67 89 69 163 3 133 -103 250
-202 226z m73 -142 c22 -42 19 -121 -6 -153 -25 -31 -42 -33 -67 -5 -28 29
-36 91 -17 137 28 67 63 75 90 21z"/>
<path d="M5276 4039 c-63 -17 -128 -105 -141 -191 -15 -97 50 -214 130 -234
36 -9 101 1 130 20 77 50 108 184 66 283 -39 89 -116 141 -185 122z m59 -116
c37 -36 46 -112 20 -162 -37 -73 -105 -31 -105 65 0 37 12 67 38 97 19 21 26
21 47 0z"/>
<path d="M5785 4041 c-45 -11 -69 -26 -104 -66 -61 -69 -74 -137 -46 -231 27
-91 86 -124 225 -124 l90 0 0 95 0 95 -55 0 -55 0 7 -46 6 -46 -31 16 c-21 11
-36 30 -48 62 -16 42 -16 50 -3 87 9 27 25 47 47 60 37 22 53 17 28 -8 -20
-21 -20 -28 2 -48 47 -42 112 -5 112 63 0 48 -23 74 -77 89 -42 12 -54 12 -98
2z"/>
<path d="M8374 4038 c-37 -9 -100 -75 -121 -126 -21 -51 -19 -140 4 -194 63
-141 241 -143 304 -3 70 153 -50 360 -187 323z m56 -108 c22 -12 40 -61 40
-112 0 -46 -13 -73 -40 -88 -68 -36 -107 111 -49 184 23 29 24 30 49 16z"/>
<path d="M2426 3979 c11 -76 11 -280 1 -326 l-6 -33 75 0 76 0 -6 28 c-3 15
-8 44 -12 65 l-6 37 49 0 c93 0 153 59 153 150 0 102 -41 129 -210 137 l-122
6 8 -64z"/>
<path d="M3155 3830 l0 -210 81 0 80 0 -14 81 c-7 45 -10 84 -7 88 13 12 44
-41 51 -87 13 -84 88 -129 143 -84 23 18 40 66 33 94 -3 14 -7 15 -23 5 -23
-15 -43 3 -69 62 -18 39 -18 40 1 46 64 21 81 111 31 166 -33 37 -80 47 -217
48 l-90 1 0 -210z"/>
<path d="M3550 3979 c0 -60 1 -61 18 -46 10 10 33 17 51 17 28 0 34 -5 48 -37
14 -33 14 -51 4 -138 -7 -55 -15 -112 -18 -127 l-5 -28 77 0 78 0 -6 28 c-17
84 -28 239 -18 264 13 34 43 43 83 24 17 -9 33 -16 35 -16 2 0 3 26 1 58 l-3
57 -172 3 -173 2 0 -61z"/>
<path d="M3927 3993 c10 -60 11 -262 1 -325 l-8 -48 85 0 86 0 -15 29 c-26 50
-31 107 -11 137 15 24 18 24 34 10 25 -23 68 -20 82 5 27 51 -39 95 -104 70
-30 -12 -34 -4 -15 32 26 50 85 63 124 26 l23 -21 5 33 c3 19 7 48 8 64 l3 30
-153 3 -153 3 8 -48z"/>
<path d="M4354 4020 c-100 -64 -133 -223 -67 -328 93 -148 291 -85 310 100 6
62 -7 114 -43 171 -48 74 -135 99 -200 57z m105 -106 c27 -35 35 -82 21 -132
-25 -95 -110 -67 -110 37 0 46 12 81 35 104 22 23 30 21 54 -9z"/>
<path d="M4628 4035 c-3 -3 -1 -27 4 -53 12 -62 12 -266 0 -319 l-10 -43 154
0 154 0 0 84 0 84 -39 -40 c-35 -34 -45 -39 -78 -36 -34 3 -39 7 -51 41 -12
38 -8 114 14 245 l7 42 -75 0 c-41 0 -77 -2 -80 -5z"/>
<path d="M4965 3830 l-1 -210 66 0 66 0 -10 78 c-8 71 1 221 21 315 l5 27 -73
0 -74 0 0 -210z"/>
<path d="M5997 3988 c10 -64 11 -243 1 -315 l-7 -53 150 0 150 0 -7 63 c-4 34
-8 64 -10 66 -2 2 -12 -3 -22 -12 -39 -36 -122 -13 -122 32 0 29 25 45 40 26
18 -22 67 -19 80 5 26 49 -31 92 -96 72 -37 -11 -42 -5 -22 31 26 50 85 63
124 26 l22 -21 7 48 c4 27 7 56 8 64 2 13 -22 15 -151 18 l-154 3 9 -53z"/>
<path d="M6556 3943 c6 -92 5 -97 -10 -76 -27 36 -56 106 -56 136 l0 27 -77 0
-78 0 0 -157 c0 -87 -3 -179 -7 -205 l-8 -48 71 0 c69 0 71 1 65 23 -13 47
-19 147 -8 147 14 0 58 -76 74 -128 l13 -42 78 0 78 0 -8 63 c-10 80 -10 271
0 320 l8 37 -71 0 -70 0 6 -97z"/>
<path d="M6727 3968 c10 -92 10 -194 0 -280 l-8 -68 151 0 151 0 -6 38 c-16
97 -15 95 -34 78 -20 -18 -73 -21 -102 -6 -22 12 -25 52 -5 69 10 9 16 8 26
-4 7 -8 22 -15 34 -15 50 0 63 58 20 87 -21 14 -33 15 -65 6 -35 -9 -39 -8
-39 9 0 29 45 68 78 68 16 0 41 -9 54 -20 l25 -19 7 46 c12 90 25 83 -145 83
l-150 0 8 -72z"/>
<path d="M7055 3831 l0 -211 79 0 79 0 -7 43 c-18 107 -19 127 -7 127 13 0 36
-48 51 -107 29 -114 170 -107 170 9 0 33 -3 39 -12 30 -25 -25 -48 -13 -73 40
-14 28 -25 53 -25 54 0 1 13 7 29 14 36 14 56 58 48 106 -12 76 -54 96 -212
102 l-120 5 0 -212z"/>
<path d="M7530 3996 c0 -80 -20 -193 -50 -282 -17 -48 -30 -89 -30 -91 0 -2
36 -3 81 -3 l80 0 -6 43 -7 44 47 -1 47 -1 -5 -42 -5 -43 79 0 c44 0 79 3 79
7 0 3 -16 55 -35 116 -27 82 -37 132 -40 201 l-5 91 -115 3 -115 3 0 -45z"/>
<path d="M7870 3978 c0 -59 1 -60 18 -45 25 23 65 21 87 -3 16 -17 17 -32 11
-127 -3 -60 -9 -125 -12 -145 l-6 -38 77 0 c61 0 76 3 72 14 -14 35 -30 248
-21 272 14 42 37 51 78 31 l36 -17 0 60 0 60 -170 0 -170 0 0 -62z"/>
<path d="M8615 3831 l0 -211 79 0 79 0 -7 43 c-19 118 -20 128 -3 122 16 -7
30 -36 47 -102 29 -114 170 -107 170 9 0 33 -3 39 -12 30 -24 -24 -47 -13 -73
38 -14 27 -25 51 -25 53 0 3 13 10 29 16 49 21 65 85 36 141 -25 49 -66 63
-200 68 l-120 5 0 -212z"/>
<path d="M5815 3066 c-114 -52 -162 -170 -126 -304 24 -86 133 -162 230 -162
41 1 113 15 154 31 l27 11 0 119 0 119 -80 0 -80 0 0 -30 c0 -29 1 -30 50 -30
l51 0 -3 -72 -3 -73 -50 -13 c-134 -33 -248 51 -248 185 0 63 26 116 77 157
34 28 45 31 104 31 54 0 73 -4 100 -24 32 -22 34 -22 53 -6 10 10 19 22 19 27
0 5 -24 20 -52 33 -71 33 -154 34 -223 1z"/>
<path d="M5310 2845 l0 -235 25 0 25 0 0 104 0 103 78 5 c89 5 135 25 157 68
32 61 14 128 -44 167 -30 20 -46 23 -137 23 l-104 0 0 -235z m215 160 c31 -30
32 -73 5 -103 -18 -19 -32 -22 -95 -22 l-75 0 0 75 0 75 70 0 c62 0 74 -3 95
-25z"/>
</g>
</svg>
